<?xml version="1.0" encoding="utf-8"?>
<!-- Generator: Adobe Illustrator 18.1.0, SVG Export Plug-In . SVG Version: 6.00 Build 0)  -->
<svg version="1.1" id="图层_1" xmlns="http://www.w3.org/2000/svg" xmlns:xlink="http://www.w3.org/1999/xlink" x="0px" y="0px"
	 viewBox="0 0 496.6 134.2" enable-background="new 0 0 496.6 134.2" xml:space="preserve">
<g>
	<path fill-rule="evenodd" clip-rule="evenodd" fill="#0082BA" d="M23.8,84.5c-1.2-2.5-1.5-5.7-0.9-9.4c0.7-4.4,1.9-7.9,3.6-10.7
		c2.2-3.5,5-5.2,8.6-5.2h22.2l1.4-9.1H37.4c-3.5,0-7.1,0.6-10.6,1.9c-4.5,1.6-8.4,4.5-11.4,8.8c-2.7,4-4.5,8.4-5.3,13.5
		c-0.9,5.3-0.4,9.9,1.4,13.8c1.9,4.4,5.1,7.2,9.4,8.4c2.2,0.6,4.5,0.9,6.9,0.9h23.5l1.4-8.5H31C27.6,89,25.3,87.5,23.8,84.5z"/>
	<path fill-rule="evenodd" clip-rule="evenodd" fill="#0082BA" d="M127.3,62.2c-0.7,0.1-1.4,0.3-2.1,0.4c-1.4,0.4-2.5,1-3.5,1.8
		c-0.9,0.7-1.8,1.7-2.6,3l0.8-4.9h-10.5l-5.5,35.1h10.5l4.4-27.5h11.7l1.3-7.8c-0.7-0.2-1.6-0.3-2.4-0.3
		C128.7,61.9,127.9,62,127.3,62.2z"/>
	<path fill-rule="evenodd" clip-rule="evenodd" fill="#0082BA" d="M153.4,62.4c-5.1,0-9.6,1.7-13.5,5.2c-3.9,3.5-6.2,7.6-6.9,12.3
		c-0.7,4.6,0.1,8.6,2.7,12.2c2.7,3.7,6.4,5.5,11.2,5.5h8.1h5.7l-0.2,1.6c-0.1,0.4-0.4,0.9-1,1.5c-0.6,0.6-1.2,1-1.6,1.2
		c-0.7,0.4-1.3,0.6-1.8,0.7c-0.3,0.1-0.6,0.1-1.1,0.1c-0.3,0.1-0.6,0.1-1,0.1c-0.3,0-0.8,0-1.4,0h-19.2l-1.2,7.4h22.7h0.1
		c2.5,0,4.7-0.3,6.5-0.8c1.8-0.5,3.6-1.5,5.3-3c1.7-1.4,3-3,3.7-4.5c0.7-1.4,1.2-3.4,1.6-5.8l5.4-33.9h-22.5H153.4z M165.1,70.4
		l-3,19.5h-7h-1.4c-3.5,0-5.8-1-7.3-3.2c-1.2-1.7-1.5-3.6-1.2-5.9c0.5-3,1.7-5.5,3.5-7.5c1.7-1.8,3.8-2.8,6.3-3c0.2,0,0.4,0,0.6,0
		H165.1z"/>
	<path fill-rule="evenodd" clip-rule="evenodd" fill="#0082BA" d="M222.3,67c-3.7-3.1-8.9-4.6-15.8-4.6c-1,0-2,0.1-3,0.1
		c-5,0.4-9.6,1.7-13.5,4.2c-5.3,3.2-8.3,7.5-9.2,13c-0.1,1.3-0.3,2.4-0.3,3.6V84c0.1,4.5,1.6,7.9,4.6,10.4c3.4,2.7,8.6,4,15.5,4
		c1,0,2-0.1,3-0.1c5.6-0.4,10.3-1.8,14.1-4.3c4.9-3.2,7.8-7.9,8.8-14c0.1-0.8,0.2-1.6,0.2-2.4v-1.3C226.6,72.4,225.1,69.4,222.3,67z
		 M214.7,79.8c-0.6,3.7-1.9,6.5-3.8,8.4c-1.9,1.8-4.3,2.8-7.3,3.1c-0.5,0.1-1.1,0.1-1.7,0.1c-3.3,0-5.8-1-7.6-3
		c-1.8-2.1-2.4-4.8-1.8-8.2c0.4-3,1.9-5.5,4.2-7.4c1.9-1.7,4.2-2.7,6.8-2.9c0.5-0.1,1-0.1,1.5-0.1c3.5,0,6,0.9,7.7,2.9
		C214.5,74.5,215.1,77,214.7,79.8z"/>
	<path fill-rule="evenodd" clip-rule="evenodd" fill="#0082BA" d="M246.3,73.5c2.3-1.9,4.8-3,7.6-3h14.9l1.3-8.1h-16.4
		c-6.3,0-11.6,1.8-15.7,5.3c-3.9,3.2-6.2,7.4-7,12.4c-0.9,5.2,0.3,9.4,3.3,12.6c3,3.2,7.6,4.8,13.8,4.8h16.5l1.2-7.6h-15.3
		c-2.8,0-5-0.9-6.6-2.8c-1.6-1.9-2.2-4.2-1.7-6.8C242.6,77.8,244,75.5,246.3,73.5z"/>
	<path fill-rule="evenodd" clip-rule="evenodd" fill="#0082BA" d="M96.1,65c-1.4-0.6-3-1.1-4.8-1.4c-1.2-0.2-2.4-0.4-3.9-0.4
		c-0.4,0-0.8,0-1.2,0c-0.4-0.1-0.7-0.1-1.1-0.1c-0.7,0-1.5,0-2.3,0H63.7l-1.2,7.4h19.1c1.2,0,2.3,0,3.3,0.1c0.1,0,0.1,0,0.2,0
		c1,0.1,1.9,0.4,2.6,0.8c0.7,0.4,1.2,0.9,1.4,1.7c0.2,0.5,0.3,1.2,0.3,1.9l-0.3,1.6L88,84.1l-1,6.3l-5.2-0.1L74,90.4
		c-0.6,0-1.4-0.1-2.1-0.1c-0.7-0.1-1.4-0.2-1.9-0.4c-0.6-0.2-1-0.5-1.3-0.9c-0.3-0.4-0.4-0.9-0.3-1.7c0.2-1.1,0.7-1.9,1.6-2.4
		c0.9-0.5,1.9-0.7,3.2-0.7h9.7l1.2-7.4h-8.6c-0.9,0-1.9,0-3,0c-1.1,0-2.2,0.1-3.2,0.2c-1.2,0.1-2.2,0.3-3.3,0.6
		c-1,0.3-1.9,0.6-2.7,1.1c-1.8,1.1-3.2,2.4-4.3,4c-1.1,1.6-1.7,3.2-2,4.9c-0.4,2.2,0,4.1,1.1,6c1.1,1.9,2.8,3.1,5.3,3.6
		c1.4,0.4,2.9,0.6,4.5,0.6c1.5,0,3,0,4.5,0h8.5h5.2h11.4l3.1-19.5c0.1-1.2,0.3-2.4,0.4-3.5c0.1-1.2,0-2.3-0.3-3.5
		C99.9,68.2,98.4,66.1,96.1,65z"/>
	<polygon fill-rule="evenodd" clip-rule="evenodd" fill="#0082BA" points="269.9,97.5 281.5,97.5 285.1,75 273.4,75 	"/>
	<path fill-rule="evenodd" clip-rule="evenodd" fill="#0082BA" d="M298.7,61.9h-23.2l-1.2,7.6H286v-0.1h10.1c2.1,0,3.5,0.4,4.4,1.2
		c0.8,0.7,1.1,2,0.7,3.8l-3.6,23h11.6l3.5-21.9c0.8-4.7,0-8.1-2.2-10.4C308.2,63,304.3,61.9,298.7,61.9z"/>
	<polygon fill-rule="evenodd" clip-rule="evenodd" fill="#0082BA" points="346.8,89.8 348.3,79.1 334.7,79.1 331.2,79.1 322.6,79.1 
		321,90.3 325.8,90.3 326.8,83.2 331.2,83.2 334.7,83.2 343,83.2 342.1,89.8 	"/>
	<path fill-rule="evenodd" clip-rule="evenodd" fill="#0082BA" d="M337.6,84.4h-2.9h-2.1c-0.3,1.4-0.8,2.5-1.4,3.5
		c-0.7,1.1-1.7,1.9-2.8,2.4c-2.2,1.1-6.1,1.8-11.7,2.2c0.8,1.8,1.3,3.4,1.7,4.7c5.8-0.5,10-1.6,12.8-3.3c0.8-0.4,1.5-1,2-1.6
		c0.5,0.1,1,0.4,1.5,0.5c3.2,1.1,7.1,2.5,11.9,4.3l2.9-4.3c-5.7-1.9-10.2-3.2-13.5-4.2C336.7,87.4,337.2,86,337.6,84.4z"/>
	<path fill-rule="evenodd" clip-rule="evenodd" fill="#0082BA" d="M324.2,72.8l-0.8,5.3h4.3l1.3-9.6c0.8-0.7,1.5-1.4,2.2-2.2
		c0.6-0.6,1.2-1.3,1.7-1.9l-1.7-0.4l-2.8-0.6c-2.3,2.6-5,5-8.3,7.4c0.1,1.9,0.2,3.5,0.2,4.8C321.7,74.6,323,73.7,324.2,72.8z"/>
	<path fill-rule="evenodd" clip-rule="evenodd" fill="#0082BA" d="M353.4,70.9c-1.4-0.4-2.7-0.9-4-1.5c-0.3,2.2-0.7,3.5-1.2,3.8
		c-0.5,0.4-1.1,0.6-1.8,0.6h-4.6c-1.4,0-2.1-0.5-1.9-1.5c4.4-1.4,8.2-3,11.5-4.7l-2.4-3.5c-2.5,1.4-5.3,2.7-8.6,4l0.6-4.5h-4.5
		l-0.9,6c-0.3,0.1-0.6,0.1-0.9,0.3c-1.2,0.3-2.3,0.6-3.5,0.9c-0.6,0.1-1.2,0.3-1.7,0.4l1,3.9l0.7-0.2c1.2-0.3,2.4-0.6,3.5-1l0.3-0.1
		c-0.2,2.5,1.3,3.8,4.5,3.8h7.1c1.4,0,2.7-0.2,3.5-0.7c0.9-0.5,1.6-1.2,2-2.2C352.4,73.7,352.9,72.4,353.4,70.9z"/>
	<polygon fill-rule="evenodd" clip-rule="evenodd" fill="#0082BA" points="385.8,69.6 386.4,65.1 373.9,65.1 367.4,65.1 366.8,69.6 
		373.9,69.6 	"/>
	<path fill-rule="evenodd" clip-rule="evenodd" fill="#0082BA" d="M364.4,69.9c-1.2-2.2-2.6-4.5-4-6.6l-4.2,2.5
		c1.4,2.2,2.6,4.4,3.7,6.8L364.4,69.9z"/>
	<path fill-rule="evenodd" clip-rule="evenodd" fill="#0082BA" d="M364.1,73.6l-0.6,4.5h5.5c-2.1,3.2-4.3,5.7-6.6,7.4l1.4,3.8
		c2.4-0.3,5.8-0.6,10.1-0.9c1.8-0.1,3.7-0.2,5.8-0.4c0.4,0.8,0.6,1.6,1,2.4l4.4-2.2c-1.5-3.5-3.2-6.8-4.9-9.9l-4,2.1
		c0.6,1.2,1.2,2.4,1.8,3.7c-1.5,0.1-3,0.1-4.2,0.2c-1.7,0.1-3.2,0.1-4.5,0.2c1.6-1.7,3.1-3.6,4.5-5.5c0.2-0.4,0.5-0.7,0.7-1h12
		l0.6-4.5h-13.3H364.1z"/>
	<path fill-rule="evenodd" clip-rule="evenodd" fill="#0082BA" d="M371,91.9c-3.2,0-5.3,0-6.3-0.1c-0.9-0.1-1.9-0.4-2.7-0.9
		c-0.8-0.5-1.5-1.2-2.2-2l1.9-13.8H354l-0.6,4.5h3.1l-1.3,9.4c-1.3,0.9-2.6,1.9-3.7,2.9l1.2,5.3c1.5-1.4,3.1-2.8,4.7-4.2
		c0.9,1.4,2.2,2.4,3.9,2.8c1.3,0.4,5.5,0.5,12.7,0.5c2.7,0.1,5.8,0.1,9.2,0l2.2-4.5c-4.5,0.1-8.3,0.2-11.4,0.2
		C372.8,91.9,371.9,91.9,371,91.9z"/>
	<path fill-rule="evenodd" clip-rule="evenodd" fill="#0082BA" d="M408.8,69.4l0.9-6h-5.2l-0.8,6h-5H391l-2.7,19.2h5l0.4-2.4h5h2.7
		l-1.5,10.9h5.1l1.6-10.9h5h2.7l-0.4,2.4h5l2.7-19.1h-10H408.8z M402,81.4h-3.3h-4.3l1-7.3h3.3h4.3L402,81.4z M414.8,81.4h-3.3h-4.3
		l1-7.3h3.3h4.3L414.8,81.4z"/>
	<path fill-rule="evenodd" clip-rule="evenodd" fill="#0082BA" d="M439.5,70.9h-8.1l-0.6,4h6.6l-0.4,2.4h-6l-0.5,4h6l-0.6,4.2h-6.9
		l-0.6,4h11h2.8h5.4l0.6-4H446l2.1-1.7c-0.9-0.9-1.7-1.8-2.5-2.6h2.6l0.5-4h-6.3h-0.6l0.4-2.4h0.3h7.1l0.5-4h-7.6H439.5z
		 M442.4,81.3h1.7l-1.7,1.4l-0.4,0.4c0.1,0.1,0.3,0.3,0.4,0.5c0.5,0.6,1,1.2,1.6,2h-1.6h-1.8l0.6-4.2H442.4z"/>
	<path fill-rule="evenodd" clip-rule="evenodd" fill="#0082BA" d="M442.4,64.8h-2.8h-13.3l-4.5,32h4.8l0.2-1.2h12.7h2.8h5.6
		l-0.1,1.2h4.8l4.5-31.9H442.4z M448.5,91.4h-6.2h-2.8h-12.2l3.2-22.4h9h2.8h9.4L448.5,91.4z"/>
	<path fill-rule="evenodd" clip-rule="evenodd" fill="#0082BA" d="M474.3,64.8h-9.5H461l-4.5,32h4.5l0.8-5.7
		c0.7,0.7,1.4,1.3,1.8,1.8c0.4-0.4,0.7-0.9,1.1-1.4c1.4-1.7,2.7-3.5,4-5.5l1.7,6.3l1.9-0.9c0.4,0.4,0.9,0.8,1.4,1.2l0.4-0.6
		c1.3-1.9,2.6-3.7,3.9-5.8l1.4,5l4.1-1.9l-2.4-8c1.8-3.1,3.5-6.3,5.2-9.7l-3.5-1.6c-1.1,2.2-2.2,4.3-3.3,6.3l-1.9-6l-1.9,0.8
		l-1.4-0.7l-0.7-0.3c-1.1,2.2-2.2,4.3-3.4,6.3l-2.2-6.2l-3.2,1.6l-0.2,0.1l0.2-1.5l0.2-1.4h9.3h12.5l-3,21.2c-0.1,1.4-1,2.1-2.4,2.1
		c-1.7,0-3.2-0.1-4.8-0.2c0.1,1.4,0.3,3,0.4,4.8c3.3,0,5.5-0.1,6.8-0.2c1.2-0.1,2.2-0.7,3-1.7c0.9-0.9,1.4-2.3,1.6-4l3.7-26.1H474.3
		z M474.3,77.1c0.3-0.5,0.5-1,0.8-1.4l1.7,5.6c-0.8,1.4-1.7,2.7-2.4,4c-0.3,0.4-0.6,0.8-0.9,1.2l-1.7-5
		C472.6,80,473.4,78.6,474.3,77.1z M464.7,73.6c0.9,2.4,1.7,5,2.5,7.6c-0.8,1.2-1.7,2.4-2.5,3.7c-0.8,1.2-1.6,2.2-2.4,3.3l2.2-15.5
		C464.6,73,464.7,73.3,464.7,73.6z"/>
</g>
<g>
	<g>
		<path fill-rule="evenodd" clip-rule="evenodd" fill="#0082BA" d="M192.9,44.8c-2.6,3.3-9.4,7.9-13.9,4.2
			C182.4,46.5,187.2,42.1,192.9,44.8z"/>
	</g>
	<g>
		<path fill-rule="evenodd" clip-rule="evenodd" fill="#0082BA" d="M254.4,47.9c-2.4-0.1-1,4-2.4,4.9c-15.6,3.5-20.4-10-35.4-7.2
			c5.2-10.6,19.2,0.9,30.1-0.3c-5-5.8-23-13.1-29.1-5.4c-2.6,0-3.3-1.5-5.6-1.8c3.2-9.3-13-14.5-12-2.9
			c-12.5,10.8-47.5,15.5-60.2-0.1c-13-0.2-10.4,17-21.3,20.2c-3.5,1.1-11.1,0-14.5,1.3c-3.1-0.3,1.6-2.8,1.7-4.2
			c-2.2-9.7-11.7,0-15.7-1c1.6-4.5,5-7,8.5-9.5c-0.9-4.2,0.3-5,1.9-7.8c-12.8,0.1-23.8,8.6-34.5,13.7c25.1-22.3,68.1-37.1,118-31.5
			c39.2,4.5,70.2,23.3,91.2,42.9C269.1,57.3,261.6,50.8,254.4,47.9z"/>
	</g>
</g>
</svg>
