<?xml version="1.0" encoding="utf-8"?>
<!-- Generator: Adobe Illustrator 17.0.0, SVG Export Plug-In . SVG Version: 6.00 Build 0)  -->
<!DOCTYPE svg PUBLIC "-//W3C//DTD SVG 1.1//EN" "http://www.w3.org/Graphics/SVG/1.1/DTD/svg11.dtd">
<svg version="1.1" id="Слой_1" xmlns="http://www.w3.org/2000/svg" xmlns:xlink="http://www.w3.org/1999/xlink" x="0px" y="0px"
	 width="160px" height="30px" viewBox="241.233 549.233 160 30" enable-background="new 241.233 549.233 160 30"
	 xml:space="preserve">
<path d="M258.709,560.867c1.158-1.104,1.831-2.773,1.831-4.928c0-4.012-2.72-6.678-6.92-6.678h-12.386v24.988h13.167
	c4.335,0,7.405-3.043,7.405-7.405C261.725,564.583,260.486,562.106,258.709,560.867z M245.272,563.102h8.886
	c2.181,0,3.554,2.262,3.554,3.878c0,1.616-1.158,3.393-3.447,3.393h-8.994V563.102z M253.835,559.225h-8.563v-5.897h8.024
	c1.158,0,3.177,0.323,3.177,2.666C256.474,556.721,256.286,559.225,253.835,559.225z"/>
<path d="M266.275,549.316h-0.323v21.326c0,2.02,1.696,3.689,3.689,3.689h0.404v-21.326
	C270.045,550.958,268.349,549.316,266.275,549.316z"/>
<path d="M313.586,549.316h-10.232v24.988h10.232c6.678,0,11.202-4.982,11.202-12.44
	C324.788,554.351,320.237,549.316,313.586,549.316z M313.586,570.292h-6.247v-16.964h6.22c4.47,0,7.19,3.177,7.19,8.563
	C320.776,567.168,318.056,570.292,313.586,570.292z"/>
<path d="M349.022,557.34c0-3.878-1.966-8.024-7.324-8.024h-13.086v24.773l0.054,0.323h0.323c2.073,0,3.689-1.696,3.689-3.689v-5.385
	h6.166l4.928,7.001c0.889,1.292,2.396,2.073,3.958,2.073h2.397l-6.597-9.344C347.514,564.18,349.022,560.571,349.022,557.34z
	 M332.597,553.328h9.101c2.908,0,3.312,2.531,3.312,4.012c0,1.831-0.592,3.958-3.5,3.958h-8.886L332.597,553.328L332.597,553.328z"
	/>
<path fill="#FED005" d="M364.505,553.813c-7.055,0-12.575,5.628-12.575,12.817c0,7.19,5.493,12.817,12.575,12.817
	c7.082,0,12.575-5.628,12.575-12.817C377.08,559.44,371.56,553.813,364.505,553.813z M364.505,575.408
	c-4.793,0-8.563-3.878-8.563-8.805s3.743-8.805,8.563-8.805c4.793,0,8.563,3.878,8.563,8.805
	C373.041,571.584,369.271,575.408,364.505,575.408z"/>
<path d="M393.775,549.316h-13.033v24.988h0.323c2.073,0,3.689-1.696,3.689-3.689v-5.385h9.021c5.493,0,7.459-4.066,7.459-7.97
	C401.233,553.624,399.214,549.316,393.775,549.316z M384.754,553.328h9.021c3.124,0,3.447,2.773,3.447,4.012
	c0,1.481-0.458,3.958-3.554,3.958h-8.805v-7.97H384.754z"/>
<path d="M299.584,559.844h-9.721c-2.02,0-3.689,1.696-3.689,3.689v0.323h9.209c-0.835,4.012-4.281,6.786-8.347,6.786
	c-4.793,0-8.563-3.878-8.563-8.805s3.743-8.805,8.563-8.805c1.346,0,2.72,0.323,3.877,0.889c0.673,0.323,1.346,0.539,2.073,0.539
	c1.104,0,2.181-0.458,2.989-1.239l0.188-0.188l-0.188-0.189c-2.316-2.45-5.574-3.824-9.021-3.824
	c-7.001,0-12.494,5.628-12.494,12.817c0,7.189,5.493,12.817,12.575,12.817c6.409,0,11.659-4.685,12.494-11.067
	c0-0.054,0.188-1.75,0.135-3.5L299.584,559.844z"/>
</svg>
